
<svg version="1.1" id="Layer_1" xmlns="http://www.w3.org/2000/svg" xmlns:xlink="http://www.w3.org/1999/xlink" x="0px" y="0px"
	 viewBox="0 0 450 359.5" style="enable-background:new 0 0 450 359.5;" xml:space="preserve">
<g>
	<path d="M133.4,178.8c1,5.3-0.4,10-2.5,14.5c-2,4.1-3.7,8.4-6.2,12.2c-2.3,3.5-5.5,6.5-8.4,9.6c-2.2,2.3-4.8,4.2-7,6.4
		c-1,1-1.6,2.5-2.5,3.8c-2.4,3.5-5.4,6.3-8.6,9.2c-4.6,4.2-9,8.7-13.1,13.4c-1.3,1.5-1.8,3.9-2.2,6c-0.2,1.1,0.6,2.4,0.6,3.6
		c0,0.9-0.5,2.1-1.1,2.5c-0.5,0.3-1.8-0.4-2.4-0.9c-2-1.7-2.1-4.2-1.7-6.3c0.9-5,2-9.9,5.8-13.7c3.6-3.6,7.1-7.2,10.6-10.8
		c0.6-0.6,1.1-1.3,1.7-1.9c2.6-2.2,5.2-4.4,7.8-6.7c1.5-1.4,2.9-2.9,4.2-4.5c0.4-0.5,0.5-1.2,0.6-1.8c0.7-5.9,0.9-11.9,2.2-17.7
		c1.1-4.8,3.4-9.3,5.2-14c0.1-0.3,0.3-0.5,0.4-0.8c-0.3-0.1-0.5-0.2-0.6-0.2c-4.7,1.4-9.6,1.1-14.4,1c-5.3-0.1-10.6-0.9-15.7-3.1
		c-3.2-1.4-6.6-2.3-9.9-3.7c-1.6-0.7-3-1.9-4.4-3c-5.1-4-10.1-8.2-15.3-12.1c-1.1-0.9-2.8-1.2-4.2-1.6c-3.9-0.9-7.8-1.7-11.7-2.6
		c-2.6-0.6-5.2-1.1-7.6-2.1c-3.9-1.8-7.8-3.8-11.4-6c-3-1.9-5.7-4.3-8.6-6.5c-3.4-2.6-5.5-6.2-7.7-9.7c-1.4-2.2-2.8-4.3-4.1-6.5
		c-0.3-0.5-0.6-0.9-0.7-1.5c-0.8-7,0.2-13.6,8.4-17c4.8-1.9,9.7-4,14.7-5.2c5.8-1.4,11.7-1.9,17.6-2.7c2.2-0.3,4.5-0.3,6.8-0.4
		c1.1-0.1,2.3-0.2,3.4-0.2c1.9,0,3.8,0.1,5.7,0.2c3.7,0.1,7.3,0.4,11,0.3c6.2-0.1,12.3,1.1,18.4,2.1c5.1,0.8,10.1,2.1,15.2,2.9
		c4.6,0.7,9.2,0.9,13.8,1.7c5.7,1,11.4,2.4,17.1,3.6c4.4,0.9,8.8,1.9,13.2,2.8c7.5,1.5,14.9,2.9,22.4,4.3c0.4,0.1,0.8,0.2,1.2,0.3
		c3.4,1.1,6.8,2.2,10.2,3.2c1.5-2.7,2.9-5.5,4.4-8.3c-9.9-4.8-16.6-12.7-21-22.8c-1.4,1.1-3.2,0.4-5.1,0.1
		c-4.8-0.7-9.7-1.2-14.5-1.1c-4.6,0-9-1-13.4-1.9c-0.5-0.1-0.9-0.3-1.3-0.6c-5-3.6-10.8-5.1-16.5-7.2c-1.1-0.4-2.4-1.1-3.1-2
		c-0.8-1.1-1.7-1.1-2.8-1.1c-1.2,0-2.5-0.2-3.6-0.6c-5.3-2-10.4-4.4-15.7-6.2c-4.7-1.5-9.7-2.4-14.7-2c-1,0.1-1.9-0.1-2.9-0.1
		c-1.6-0.1-2.3-1.2-2.3-2.7c0-1.6,1-2.3,2.4-2.4c1.7-0.1,3.4-0.1,5.1,0c4.7,0.1,9.2,1,13.6,2.6c6,2.3,12,4.6,17.9,7
		c1.3,0.5,2.5,1.6,4,2.5c2.8-1.6,5.8-0.6,8.9,0.3c4,1.1,8,2.3,11.9,3.5c2.7,0.9,5.3,0.4,8-0.1c2.1-0.4,4.1-1.1,6.2-1.1
		c5.8-0.2,11.2,1.2,16,4.6c0.3,0.2,0.8,0.3,1.3,0.2c3.1-0.3,5.7,0.4,8,2.7c3.2,3.1,6.7,5.9,10,8.9c2.1,2,4.1,4.1,6.2,6.1
		c0.5,0.5,1.1,0.9,1.7,1.3c0.3,0.1,1,0.1,1.1-0.1c1.8-2.9,3.8-5.7,5.2-8.7c0.5-1.1,0.1-3.1-0.6-4.2c-1.7-2.7-2.6-5.6-3.1-8.8
		c-0.4-3,0.5-5.4,3-7c1.5-0.9,3.1-1.5,4.7-2.3c0.4-0.2,0.9-0.2,1.2-0.5c1.7-1.9,3.5-3.9,5.1-5.9c1.3-1.5,2.5-3.1,3.7-4.6
		c0.4-0.6,0.9-1.1,1.1-1.3c-3.2-1.8-6.2-3.6-9.4-5.3c-3.3-1.8-6.6-3.8-10.1-5.2c-2.6-1.1-5-2.4-7.3-4.1c-3.4-2.7-7.3-4.7-10.6-7.5
		c-2.7-2.3-5.1-5.1-7.2-8c-1.3-1.7-1.9-4-2.7-6c-2.2-5.3-4.4-10.5-6.5-15.8c-0.5-1.2-1.1-2.7,0.3-3.6c0.3-0.2,1.7,1.2,2.5,2
		c0.3,0.3,0.6,0.8,0.8,1.2c1.6,3.6,3.3,7.2,4.8,10.9c4,9.6,10,17.5,19.3,22.1c6.7,3.3,12.6,8,19.3,11.2c2.9,1.4,5.6,3.2,8.5,4.7
		c0.4,0.2,1.1,0.2,1.6,0c0.9-0.2,1.7-0.7,2.6-0.8c2.6-0.2,4.8-1.2,7.1-2.4c1.3-0.7,2.8-1.2,4.5,0.2c2.1,1.8,4.8,2.7,7.6,2.8
		c0.3,0,0.7,0,0.9,0.1c3.3,2,5.8-0.5,8.3-1.8c3.3-1.7,6.4-3.8,9.5-5.8c2-1.3,4-2.7,6.1-3.9c2.9-1.6,6-2.9,8.7-4.6
		c4.6-3,9.2-6.2,12.1-11c4-6.5,7.5-13.2,10.2-20.3c0.5-1.3,1.5-2.5,2.3-3.6c0.2-0.3,1-0.7,1.2-0.5c0.4,0.2,0.8,0.8,0.8,1.3
		c0,0.9-0.2,1.8-0.5,2.6c-2.2,5.3-4.4,10.7-6.6,16c-0.8,2-1.5,4.1-2.6,5.9c-3.3,5.1-7.7,9-13.1,11.9c-2.2,1.2-4.1,3.1-6.2,4.6
		c-1.2,0.8-2.4,1.6-3.7,2.1c-5.1,1.9-9.7,4.4-14.2,7.4c-2.2,1.5-4.7,2.6-7.2,3.9c0.2,0.2,0.6,0.7,1,1.3c1.5,2,2.7,4.2,4.4,5.9
		c2,2,3.4,4.5,6.4,5.5c2,0.7,3.9,2.1,5.6,3.5c0.9,0.8,1.4,2.3,1.4,3.5c0.1,3.7-0.6,7.2-2.9,10.3c-1.6,2.1-1.6,4.3,0,6.5
		c0.9,1.3,1.5,2.7,2.4,4.1c0.6,1,1.2,2,2,2.8c0.3,0.3,1.3,0.1,1.7-0.2c1.2-1,2.3-2.1,3.5-3.2c5-4.6,10-9.2,15-13.8
		c1.9-1.7,4.2-1.8,6.6-1.6c0.5,0,1.1-0.1,1.6-0.3c6-3.5,12.2-5.8,19.2-3.8c6.1,1.7,11.9,0.7,17.7-1.5c3.7-1.4,7.8-1.6,11.7-2.3
		c0.8-0.1,1.6,0.4,2.4,0.6c5.2-4.7,11.3-7.6,18-9.3c4.8-1.2,9.8-2.1,14.7-2.9c2.3-0.4,4.8-0.2,7.1-0.1c1.5,0,2.8,0.6,2.9,2.4
		c0.1,1.7-0.8,2.8-2.7,2.9c-1.8,0.1-3.7-0.2-5.5,0.1c-4.2,0.7-8.4,1.6-12.5,2.4c-2.5,0.5-5.1,0.9-7.6,1.4c-3.6,0.6-6.7,2.2-9.7,4.2
		c-0.7,0.4-1.5,0.5-2.3,0.8c-0.5,0.2-0.9,0.5-1.3,0.7c-1.3,0.8-2.5,1.9-3.9,2.4c-5.4,2.1-11,3.8-16,6.9c-2.2,1.4-5.2,1.8-7.9,2.1
		c-3.2,0.4-6.5,0.3-9.7,0.5c-3.4,0.2-6.8,0.5-10.2,0.7c-0.6,0-1.2,0.2-1.7,0.4c-2.5,0.8-2.5,0.8-4.8-0.2c-4.3,10.1-11.1,18-21,22.8
		c1.5,2.8,3,5.5,4.2,7.9c8.8-2.1,17.4-4.4,26.1-6.3c6.1-1.3,12.3-2.1,18.4-3.4c4.5-0.9,8.8-2.4,13.3-3.2c5.7-1,11.5-1.6,17.3-2.5
		c4.9-0.8,9.7-1.8,14.5-2.5c4.3-0.7,8.7-1.1,13-1.9c6.6-1.2,13.3-0.8,19.9-1c4.7-0.2,9.4-0.3,14,0c4.5,0.3,8.9,1.1,13.4,1.8
		c8,1.2,15.5,3.7,22.7,7.2c4.4,2.2,6.5,6.1,7,10.7c0.4,3.6-0.4,7.1-2.7,10.2c-1.3,1.7-2.5,3.5-3.6,5.4c-3.1,5.1-7.5,8.8-12.3,12.3
		c-4,3-8.3,5.1-12.7,7.1c-3.4,1.5-7.2,2-10.9,2.9c-0.3,0.1-0.7,0-1.1,0.1c-4.2,1.2-8.4,2.2-12.4,3.7c-1.8,0.6-3.3,2-4.8,3.2
		c-4.2,3.5-8.2,7-12.4,10.5c-1,0.8-2.1,1.4-3.3,1.8c-3.2,1.2-6.4,2.2-9.5,3.6c-8.1,3.6-16.7,3.3-25.2,3.2c-1.8,0-3.6-0.6-5.6-1
		c0.8,1.9,1.4,3.8,2.3,5.5c3.2,5.9,3.9,12.5,4.7,19c0.3,2.9,0.1,5.9,0.9,8.6c0.6,1.9,2.1,3.7,3.6,5.2c4,4,8.1,7.9,12.2,11.8
		c3.3,3.1,6.8,6.1,9.3,10.1c2.9,4.7,5.2,9.5,5.2,15.1c0,1.8-1,2.9-2.3,3.9c-1.3,0.9-2.9,0.2-2.8-1.4c0.2-7.1-3.3-12.6-7.6-17.6
		c-5.3-6-10.9-11.6-16.5-17.3c-3.9-4-8.1-7.7-12.1-11.6c-3.8-3.7-6.5-8.1-8.5-12.9c-2-4.6-4.8-9-5.3-14.1c-0.2-2,0-4,0-6.2
		c-3-0.5-6.1-1.1-9.1-1.6c-3.5-0.7-7-1.5-10.6-2.1c-2.8-0.5-5.7-0.7-8.5-1.1c-3.4-0.4-6.8-0.9-10.2-1.2c-5.2-0.5-10.1-2.2-14.9-4
		c-1.3-0.5-2.6-1-4.1-1.6c-2.4,4.7-3.7,9.9-8,13.4c0.1,0.2,0.1,0.4,0.2,0.5c2,0.2,4,0.5,6.1,0.6c2.5,0.2,5.2-0.1,7.5,0.6
		c4,1.1,7.9,2.5,11.7,4.1c3.7,1.6,7.1,3.7,9.4,7.1c0.8,1.1,1.6,2.4,1.8,3.7c0.2,1.4,0.8,2.3,1.8,3.1c5.4,4.8,9.4,10.8,13.1,16.9
		c3.4,5.6,2.8,11.5,1.5,17.6c-1.2,5.3-1.3,10.8-2.5,16c-0.9,4,0.9,6.9,2.3,10.2c2.7,6.8,5.9,13.5,7.9,20.5
		c1.4,4.9,1.4,10.2,1.9,15.3c0.2,1.9-0.7,3.5-2.1,4.8c-0.8,0.7-0.8,1.3-0.5,2.2c2.4,6.4,4.5,12.9,7.1,19.3
		c2.2,5.5,3.7,11.3,4.3,17.1c0.7,5.9-0.4,11.6-5.3,16c-0.6,0.5-0.9,1.4-1.5,2c-0.4,0.4-0.9,0.5-1.7,0.6c4.9-19.4-1.5-36.6-9.5-54.1
		c-1.4,1.2-2.7,2.2-3.8,3.4c-1.5,1.6-2.9,3.4-4.4,5.1c-0.3,0.4-1,0.5-1.5,0.7c0-0.6-0.3-1.4,0-1.7c4.1-5.3,1.9-11,0.6-16.4
		c-1-4-2.8-7.8-4.2-11.7c-1.9-5.2-3.7-10.4-2.7-16c0.6-2.9,1.7-5.6,2.5-8.4c0.2-0.7,0.4-1.5,0.6-2.2c-3.6-2-5.2-4.9-5.6-9
		c-0.2-2.7,0.3-5.2,0.7-7.8c0.4-2.6,0.2-5.3-0.3-7.9c-0.8-3.9-2.1-7.6-3.1-11.5c-1.5-5.5-2.2-11-0.4-16.9c-2.9,1.2-5.4,1.3-7.8-0.3
		c-1.8-1.2-3.5-2.6-5.2-3.9c-0.5-0.3-1-0.6-1.6-0.7c3.2,4.8,4.6,10.2,5.4,15.8c0.6,4.3,0.8,8.8,1,13.1c0.5,7.5-1.1,14.7-2.3,22
		c-0.8,5-0.5,10-0.1,15.1c0.4,5.6,0.4,11.2,0,16.8c-0.8,10.8-5.5,20.2-11.8,28.7c-4.7,6.3-9.8,12.4-17,16.1
		c-2.1,1.1-3.9,2.7-5.6,4.4c-2.3,2.3-4.8,4.7-8.3,5.6c-1.1,0.3-2,1.1-2.9,1.7c-1.2,0.8-2.3,1.4-3.5-0.3c-0.6-0.9-1.7-1.6-2.8-1.9
		c-4.2-1.3-7.3-4-10.1-7.2c-0.9-1-2-1.7-3.2-2.3c-4.9-2.2-8.4-6-12.1-9.6c-5.3-5.2-9.2-11.4-12.6-18c-3.1-6-5.1-12.3-5.3-19
		c-0.3-6.6,0.4-13.3,0.4-20c0-4.1,0-8.2-0.8-12.2c-2.6-13.7-3-27.4,0.7-41c0.4-1.5,1-2.9,1.7-4.4c0.6-1.4,1.4-2.7,1.9-4.3
		c-1.5,1-3.2,1.9-4.5,3.1c-2.8,2.7-5.8,3.7-9.6,2.1c0.3,2.1,0.6,4,0.7,6c0.3,4.3-0.5,8.5-2,12.6c-1.6,4.6-2.8,9.3-2.9,14.2
		c0,2.1,0.4,4.1,0.7,6.2c0.6,4.4,0.4,8.7-2.9,12.1c-0.7,0.7-1.5,1.2-2.5,1.9c0.2,0.7,0.4,1.6,0.8,2.4c2.5,5.2,3.5,10.8,1.9,16.3
		c-1.7,6.1-4.2,11.9-6,17.9c-1.1,3.4-1.6,7-2.2,10.6c-0.4,2.4,0.8,4.3,1.8,6.3c0.4,0.8,0.5,1.8,0.7,2.7c-0.8-0.5-1.7-0.8-2.4-1.5
		c-1.9-2-3.6-4.1-5.5-6.2c-0.5-0.5-1.2-0.8-2.1-1.3c-1.9,5.6-3.9,11-5.6,16.4c-1.6,5-3.2,10.1-4.4,15.2c-1.2,5-1.5,10.1,0,15.2
		c0.6,2.1,1,4.3,1.5,6.5c-1.5,1-3.2,0.5-4.9-1.4c-2.7-2.9-3.9-6.5-4.3-10.3c-0.7-6-0.2-11.8,1.7-17.6c1.7-5.3,3.4-10.6,6-15.6
		c1.6-3.1,2.6-6.5,3.8-9.8c0.2-0.4,0.1-1.2-0.1-1.4c-2.5-2.1-2.8-5-2.5-7.9c0.3-3.1,0.5-6.2,1-9.3c1.1-6.1,3.5-11.8,6.1-17.5
		c1.6-3.6,3.1-7.2,4.7-10.8c0.6-1.4,0.8-2.7,0.4-4.3c-0.6-2.5-0.4-5.2-0.8-7.7c-0.8-4.7-1.6-9.4-2.6-14c-1.1-5,0-9.6,2.5-13.9
		c3.7-6.2,7.8-12.2,13.3-17c0.6-0.5,0.8-1.5,1.2-2.3c0.7-1.4,1.2-2.9,2.1-4.1c3.2-4.4,8.1-6.4,12.9-8.7c5.1-2.4,10.5-2.9,16-3
		c1.9,0,3.8-0.4,6-0.6c-1.1-1.4-2.1-2.4-2.8-3.7c-1.3-2.2-2.3-4.6-3.5-6.9c-0.5-1-1-1.9-1.6-2.8c-0.2-0.3-1-0.3-1.4-0.2
		c-3.5,1.2-6.9,2.8-10.5,3.7c-5.7,1.4-11.4,2.9-17.4,2.6c-3.4-0.1-6.7,0.6-10,1.3c-5.7,1.3-11.6,2.2-17.3,3.3
		C134.1,178.5,133.8,178.6,133.4,178.8z M180.1,130c-1.4-0.8-2.4-1.7-3.6-2.1c-5.5-1.8-10.8-4.2-16.6-5.5c-10-2.2-19.8-5.1-29.6-7.7
		c-2.5-0.7-4.9-1.7-7.4-2.4c-3.1-0.8-6.2-1.5-9.3-2.2c-7.5-1.6-14.9-3.5-22.4-4.8c-6.9-1.2-13.8-1.8-20.7-2.8
		c-8.8-1.3-17.6-1.8-26.5-1.2c-3.7,0.3-7.3,0.8-10.9,1.3c-2.7,0.4-5.4,1-8.1,1.5c0.7,0.8,1.4,1.1,2.1,1.4c3.2,1.2,6.3,2.6,9.6,3.5
		c4.2,1.1,8.4,1.9,12.7,2.4c5.2,0.5,10.4,0.5,15.5,2c0.4,0.1,0.8,0.2,1.2,0.3c3.8,0.9,7.8,1.4,11.5,2.8c5,1.9,9.7,4.5,14.5,6.7
		c1.2,0.6,2.6,1.2,3.9,1.3c5,0.4,9.7,1.8,14,4.3c3.9,2.2,8,3,12.4,3.1c3.9,0,7.8,0.3,11.7,0.6c4.1,0.3,8.2,1,12.3,0.9
		c4.4-0.1,8.7-0.9,13.1-1.3C166.3,131.3,173,130.7,180.1,130z M425.2,105c-2.6-0.6-4.8-1.4-7-1.7c-6.1-0.7-12.2-1.3-18.3-1.5
		c-5-0.1-10.1,0.3-15.1,0.7c-4.4,0.4-8.7,1.1-13.1,1.7c-6.9,1-13.8,1.8-20.7,3.1c-5.8,1.1-11.5,2.6-17.2,3.9
		c-3.4,0.8-6.9,1.7-10.3,2.7c-6,1.8-12,4-18,5.7c-5.8,1.6-11.8,2.4-17.6,4c-5.1,1.4-10,3.4-15,5.2c-1,0.4-1.9,1.2-3,1.8
		c3.3,0.4,6.3,0.8,9.2,1c6.2,0.5,12.5,0.5,18.7,1.6c4.6,0.8,9.1,0.4,13.6,0.4c6-0.1,12-0.8,18-1.2c3.4-0.2,6.6-1,9.6-2.6
		c4.1-2.2,8.4-4.1,13.2-4.4c2-0.1,4.1-1,6-1.9c3.7-1.7,7.3-3.6,11-5.3c2-0.9,4.1-1.6,6.3-2.2c3.2-0.8,6.5-1.6,9.8-2.2
		c3.9-0.7,7.9-1.6,11.9-1.8c7-0.3,13.8-1.6,20.4-3.8C420.1,107.6,422.4,106.3,425.2,105z M237.4,222.9c0-0.1,0-0.1,0-0.2
		c1.7-0.2,3.4-0.5,5.2-0.7c4.5-0.6,9-1.5,13.6-1.8c4-0.3,7.4-1.7,10.4-4.1c0.7-0.6,1.4-1.8,1.3-2.7c-0.1-3.7-0.8-7.2-4.1-9.5
		c-0.5-0.3-0.8-0.9-1.2-1.3c-1.7-1.9-3.6-3.4-6.4-3.1c-1.5,0.2-3,0.4-4.5,0.5c-6.3,0.6-12.6,1.3-18.9,1.6c-4.2,0.3-8.5-0.2-12.6,0.2
		c-3.3,0.3-6.4-0.5-9.6-0.9c-2.9-0.4-6-0.5-9-0.4c-3.4,0-6.8,0.7-10.2-0.6c-0.7-0.3-2.1,0.1-2.7,0.7c-3.7,3.4-5.8,7.7-7,12.6
		c-0.4,1.8,0.3,3,1.9,3.6c7,2.8,14.1,5.7,21.9,5.6c1.7,0,3.4,0,5,0.1c5.3,0.2,10.6,0.4,15.9,0.5
		C230.1,222.9,233.7,222.9,237.4,222.9z M229.6,265.3c0-0.2,0-0.3,0-0.5c7.9,0.7,15.6-1.5,23.2-2.8c4.4-0.8,8.7-2.4,12.9-3.9
		c2.3-0.8,4-2.6,4.4-5.3c0.3-2,0.5-4.1,0.7-6.1c0.3-2.5-1.4-4.5-3.8-4.3c-2.7,0.3-5.3,0.9-8,1.4c-1.4,0.2-2.7,0.7-4.1,0.7
		c-5.1,0.2-10.2,0.3-15.3,0.4c-5.1,0.1-10.2,0.6-15.3,0.4c-6.3-0.3-12.6-1.1-18.9-1.6c-3.8-0.3-7.6-0.2-11.4-0.5
		c-3.6-0.3-7.3-0.6-10.9-1.4c-3.2-0.8-4.8,0.3-4.5,3.7c0.2,2.3,0.4,4.6,0.3,6.9c-0.2,3,0.6,4.1,3.6,4.5c1,0.1,2.1,0.2,3,0.6
		c6.9,3.2,14.3,4.5,21.8,5.5C214.8,264,222.2,264.5,229.6,265.3z M178.6,277.6C178.6,277.6,178.5,277.6,178.6,277.6
		c0.1,1.6,0.1,3.3,0.4,4.9c0.4,2.1,0.6,4.5,1.8,6.1c1.7,2.4,4.5,3.8,7.5,4.3c10.1,1.6,20.2,3,30.5,3c4.4,0,8.8,0.5,13.2,0.3
		c5.2-0.3,10.4-1.1,15.6-1.8c4.3-0.6,8.7-1.3,12.9-2.4c3.7-0.9,6.7-3.1,8-6.9c0.5-1.5,0.3-3.3,0.7-5c0.9-3.6-1.4-6.2-5.3-4.6
		c-2,0.8-4.2,1.5-6.3,2c-2.7,0.6-5.5,1.2-8.3,1.5c-5.5,0.7-11.1,1.4-16.7,1.8c-3.8,0.2-7.6-0.3-11.4-0.3c-8.9,0-17.5-2.5-26.2-3.7
		c-4.5-0.6-8.8-1.9-13.2-2.9c-2.5-0.6-3.4,0.2-3.3,2.9C178.6,277.1,178.6,277.3,178.6,277.6z M313.3,136.5c0,0.2-0.1,0.4-0.1,0.6
		c2.4,1,4.8,2.2,7.3,2.8c5.7,1.4,11.3,3.1,16.6,5.8c0.9,0.5,2.3,0.6,3.3,0.3c5.1-1.5,10.1-3,15.1-4.7c5.2-1.8,10.4-3.8,15.6-5.5
		c2.9-1,5.9-1.6,8.9-2.4c3.3-0.9,6.8-1.3,9.9-2.7c8.3-3.8,16.3-8.2,24.6-12.2c3.3-1.6,6.8-2.8,10.3-3.8c5.8-1.6,11.8-1.8,17.9-1.4
		c-0.2-0.3-0.3-0.5-0.5-0.7c-3.4-3.1-7.6-4.8-11.9-6.3c-0.4-0.1-0.9-0.1-1.2,0.1c-2.4,1-4.9,1.9-7.2,3.1c-4.8,2.6-10,4.1-15.4,5
		c-4.5,0.8-9.2,1-13.8,1.6c-8.2,1.1-16,3.5-23.5,6.6c-4.5,1.9-8.8,4.2-13.6,5.7c-6.3,2-12.2,5-18.7,6.4c-5.2,1.1-10.3,1.7-15.5,1.5
		C318.6,136.4,316,136.5,313.3,136.5z M136.7,136.5c-0.1-0.2-0.1-0.5-0.2-0.7c-1.6,0-3.2,0-4.8,0c-4.1-0.1-8.3,0-12.4-0.3
		c-2.5-0.2-4.9-0.9-7.4-1.6c-3.7-1-7.4-2.1-11-3.3c-3.6-1.2-7.2-2.6-10.8-3.9c-1.3-0.5-2.6-0.9-3.8-1.6c-6.8-4.2-14.4-6.2-22.1-8.2
		c-3.5-0.9-7.3-0.9-10.9-1.5c-4.7-0.7-9.4-1.3-14-2.5c-5.3-1.5-10.7-3.2-15.7-5.6c-2.7-1.3-4.7-1.7-7.1-0.3c-0.6,0.3-1.4,0.5-2,0.8
		c-2.6,1.3-5.2,2.6-7.2,4.9c3.8,0,7.3-0.3,10.8,0.1c5.9,0.6,11.6,2.5,17,5c6.8,3.1,13.3,6.7,20,9.9c3.1,1.5,6,3.2,9.5,3.9
		c5.3,1.1,10.4,2.7,15.6,4.3c3.8,1.2,7.6,2.7,11.4,3.9c5.6,1.9,11.3,3.6,17,5.4c1.6,0.5,3.1,0.5,4.7-0.3c4.3-2.1,8.7-3.9,13.5-4.9
		C130.1,139.1,133.4,137.7,136.7,136.5z M119.2,175.9c3.9-0.3,7.7-0.3,11.6-0.9c5.2-0.7,10.4-1.6,15.6-2.9c2.9-0.7,5.5-2.3,8.2-3.6
		c4.7-2.2,9.6-4.3,14.1-6.8c6.5-3.6,13.6-4.7,20.8-5c2.8-0.1,3.5-0.7,3.1-3.5c-0.2-1.1-0.6-2.2-1-3.2c-1.2-2.4-2.6-4.6-3.7-7
		c-1.5-3-2.1-3.3-5.2-1.7c-0.5,0.3-1.1,0.6-1.5,0.9c-3.3,2.4-6.9,4.2-10.8,5.3c-1.8,0.5-3.7,0.9-5.4,1.7c-6.1,2.6-12.4,5-18.3,8
		C136.7,162.1,127.3,167.7,119.2,175.9z M330.7,176.3c0.1-0.2,0.2-0.4,0.3-0.6c-5.5-3.9-10.8-8-16.6-11.5
		c-10.9-6.7-22.3-12.1-34.6-15.9c-3.3-1-6.4-2.9-9.6-4.4c-1.9-0.9-3.9-1.9-5.9-2.7c-0.4-0.2-1.4,0.4-1.7,0.9c-1.6,2.9-3.3,5.9-4.6,9
		c-0.6,1.5-0.7,3.2-0.8,4.9c0,1.1,0.7,1.7,2,1.6c1.3-0.1,2.7-0.2,4,0c8,0.8,15.4,3.2,22.5,7.2c4.8,2.7,9.8,5.1,15,7.2
		c3.4,1.4,7.2,1.8,10.8,2.7C317.8,176.1,324.2,176.7,330.7,176.3z M23.5,140.9c3.1,1,5.6,2,8.2,2.7c3.9,1,7.9,1.6,11.8,2.4
		c1.7,0.4,3.5,0.6,5,1.3c2.7,1.3,5.2,3,7.8,4.4c0.5,0.3,1.3,0.4,1.9,0.2c2-0.5,3.9-1.3,5.8-1.8c5.5-1.5,11-0.3,16.5,0.2
		c6.2,0.6,12.3,2,18.6,0.2c2.8-0.8,5.5-1.7,7.9-3.2c-1.9-0.3-3.8-0.2-5.6-0.7c-5.3-1.3-10.6-2.8-15.9-4.2
		c-8.4-2.2-16.8-4.5-25.3-6.6c-2.8-0.7-5.7-1.1-8.5-1.2c-7.1-0.3-13.9,1.2-20.4,3.8C28.9,139.4,26.4,140,23.5,140.9z M342.7,148
		c0.3,0.2,0.5,0.4,0.7,0.5c5.3,2.5,10.8,4.2,16.7,3.7c4.8-0.4,9.6-1,14.3-1.6c5.9-0.8,11.6-0.3,17.1,2.1c1,0.4,1.6,0.3,2.4-0.3
		c4-2.9,8.4-4.8,13.2-5.8c5.9-1.3,11.8-2.8,17.6-4.3c0.4-0.1,0.8-0.4,1.4-0.7c-2.8-0.9-5.3-1.5-7.7-2.5c-6.7-2.7-13.6-4-20.8-3.8
		c-0.9,0-1.8,0.1-2.7,0.2c-3.3,0.7-6.6,1.4-9.8,2.2c-8.7,2.2-17.4,4.3-26,6.7c-5.2,1.4-10.2,3.5-15.6,3.3
		C343.3,147.7,343.1,147.9,342.7,148z M330.8,173.8c1.7,0.8,3.5,2.2,5.3,2.3c3.2,0.1,6.4-0.6,9.7-0.9c2-0.2,3.9,0,5.9-0.1
		c2,0,4.2,0.3,6.1-0.2c7.1-1.7,13.7-4.8,19.5-9.3c2.1-1.6,4.3-3.3,6.4-5c2.6-2.1,5.1-4.2,7.8-6.4c-0.6-0.2-0.9-0.4-1.3-0.6
		c-5.9-2.2-11.8-0.3-17.6,0.3c-5.3,0.6-10.6,1-15.9,1.6c-0.7,0.1-1.5,0.3-2,0.7c-1.9,1.8-3.6,3.9-5.7,5.4
		C343.2,165.9,337.1,169.6,330.8,173.8z M58.3,153.5c1.1,0.9,2,1.7,3,2.4c2.5,1.9,5.3,3.7,7.6,5.8c4.3,4.1,9.4,7,14.8,9.6
		c4.7,2.3,9.6,3.3,14.8,3.1c4.5-0.2,9.1-0.1,13.4,0.7c3.4,0.7,5.1-0.8,7-2.5c-5.1-3.2-10.2-6.3-15.1-9.5c-2.5-1.6-5.2-3.3-7-5.6
		c-1.7-2.2-3.3-3-5.8-2.4c-0.2,0-0.4,0-0.5,0c-6.4-0.9-12.7-1.6-19.1-2.7C66.9,151.7,62.7,151.8,58.3,153.5z M292.2,150
		c0,0.2-0.1,0.4-0.1,0.5c2.7,1.1,5.5,2,8.1,3.3c3.9,1.8,8,3.5,11.6,5.8c5.1,3.2,10,6.9,14.9,10.6c1.2,0.9,2.3,1.1,3.4,0.4
		c5.4-3.5,10.8-7,16.1-10.6c1.7-1.2,3-2.8,4.4-4.1c-2.3-0.8-4.7-1.4-7-2.3c-4.6-1.8-9.2-3.9-13.8-5.7c-0.9-0.3-1.9-0.5-2.8-0.4
		c-3.5,0.5-7,1.3-10.5,1.7c-5.2,0.6-10.5,1.2-15.8,1.5C297.9,150.6,295,150.2,292.2,150z M157.8,149.8c0-0.2-0.1-0.4-0.1-0.6
		c-3.1,0.2-6.1,0.5-9.2,0.6c-7.7,0.1-15.2-1.4-22.7-2.9c-2.4-0.5-4.6-0.7-7,0.4c-4.7,2.2-9.6,4.1-14.5,6c-1.7,0.7-3.5,1-5.4,1.6
		c1.1,0.8,2.1,1.4,2.8,2.2c5.2,5.3,11.5,8.9,17.8,12.5c1.2,0.7,2.4,0.8,3.6-0.3c1.6-1.4,3.3-2.6,5.1-3.8c6.3-4.5,12.5-9.3,19.9-12.1
		C151.4,152.4,154.6,151.1,157.8,149.8z M51.9,130.1c-0.1-0.3-0.1-0.5-0.1-0.5c-4.9-2.7-9.7-5.6-14.7-8c-2.6-1.3-5.6-1.7-8.4-2.7
		c-7.1-2.6-14.4-3.3-21.8-3.5c-1.4,0-1.9,0.6-2.4,1.7c-1.2,2.9,0,8.5,2.2,10.8c1.7,1.7,3.1,3.5,4.9,5.1c2.3,2.1,4.7,4.1,7.2,6
		c1.1,0.9,2.4,1.1,3.7,0.2c1.1-0.7,2.3-1.4,3.4-2C34.1,133.1,42.5,130.1,51.9,130.1z M398,130.3c4.3,0.8,8.7,1.3,12.8,2.5
		c5,1.6,9.9,3.6,14.6,6c3.6,1.8,4.5,2.1,7.5-0.6c3.5-3.1,6.8-6.5,10.1-9.8c2.3-2.3,3.4-8,2.1-10.9c-0.4-1-1-1.6-2.2-1.5
		c-4.5,0.5-9.1,0.7-13.6,1.4c-3.5,0.6-7,1.7-10.5,2.7c-2.8,0.8-5.7,1.6-8.4,2.8c-3,1.3-5.9,3-8.8,4.7
		C400.5,128.6,399.2,129.6,398,130.3z M125.1,144.8c7.1,2.4,20.6,3.9,32,1.9c3.6-0.7,7.1-2.1,10.7-2.5c6.4-0.8,11.9-3.7,17.1-7.2
		c-0.1-0.4-0.3-0.8-0.4-1.3c-0.9-2.6-0.9-2.5-3.7-2.2c-4.1,0.6-8.2,1.2-12.3,1.4c-5.6,0.2-11.2-0.1-16.8,0.2
		c-2.8,0.1-5.6,0.9-8.2,1.8c-3.7,1.3-7.2,3.1-10.7,4.6C130.3,142.6,127.8,143.6,125.1,144.8z M325,145.7c-0.9-0.5-1.3-0.7-1.7-0.9
		c-4.3-1.8-8.7-3.6-13-5.4c-2.1-0.9-4.1-1.9-6.3-2.7c-5.2-1.8-10.8-1.1-16.1-1.3c-6.1-0.2-12.1,0-18.1-1.2c-3.6-0.7-3.7-0.6-4.7,3.1
		c0,0.2,0,0.3,0,0.8C283.9,148.2,303.7,150.8,325,145.7z"/>
</g>
</svg>
