
<svg xmlns="http://www.w3.org/2000/svg" xml:space="preserve" width="9.99999in" height="6.66666in" version="1.1" style="shape-rendering:geometricPrecision; text-rendering:geometricPrecision; image-rendering:optimizeQuality; fill-rule:evenodd; clip-rule:evenodd"
viewBox="0 0 9999.99 6666.66"
 xmlns:xlink="http://www.w3.org/1999/xlink"
 xmlns:xodm="http://www.corel.com/coreldraw/odm/2003">
 <defs>
  <style type="text/css">
   <![CDATA[
    .fil0 {fill:none}
    .fil1 {fill:#2B2A29}
   ]]>
   .favicon-stroke {
      stroke-width: 8px;
      stroke: #8929ff;
    }
  </style>
 </defs>
 <g id="Layer_x0020_1">
  <metadata id="CorelCorpID_0Corel-Layer"/>
  <rect class="fil0" x="-0.01" y="-0" width="10000" height="6666.67"/>
  <path class="fil1" d="M8438.28 4453.69c-43.94,64.24 -117.34,104.26 -206.4,112.75 -42.07,3.92 -84.08,1.65 -128.12,-7.13 0.28,-194.94 -94.03,-361.36 -182.75,-502.37 -3.04,-4.78 -6.67,-10.71 -10.88,-17.62 -23.12,-38.04 -64.12,-105.48 -109.74,-153.08 10.64,-2.8 20.49,-6.65 29.76,-11.64 10.21,-5.62 44.11,-26.13 50.11,-56.3 2.46,-11.95 -0.33,-23.88 -5.4,-35.67 19.32,7.36 38.71,14.54 58.12,21.66 54.49,20.06 110.81,40.76 164.2,66.51 82.24,39.69 163.89,82.07 242.49,126.02 65.37,81.43 107.35,157.43 128.43,232.26 23.29,82.72 12.74,162.55 -29.83,224.61zm-643.69 -30.56c-85.09,-48.53 -173.26,-98.71 -265.52,-125.9 -24.53,-7.27 -49.01,-12.72 -74.31,-16.69 13.34,-82.39 29.36,-191.12 8.51,-284.98 -6.65,-29.96 -18.72,-61.35 -37.27,-96.8 30.22,18.36 59.13,33.11 87.55,44.54 53.65,21.64 130.82,44.23 180.65,-10.11 7.1,-7.77 12.84,-15.88 17.14,-24.27 58.96,74.14 178.78,243.02 192.29,265.78 81.84,137.37 122.96,251.22 132.24,366.36 -83.06,-27.73 -163.36,-73.56 -241.28,-117.94zm-376.09 -147.01c-13.98,-1.2 -27.92,-1.79 -41.67,-1.79 -103.47,-0.02 -201.3,34.24 -297.03,103.78 27.33,-190.04 -47.24,-350.65 -125.52,-483.84 -8.85,-89.54 -48.08,-177.49 -119.85,-268.51 140.6,-91.21 241.23,-6.31 357.18,91.64l44.4 37.27c15.83,13.34 31.87,26.8 48.05,40.19 13.75,25.77 28.67,51.33 43.11,76.15 20.49,35.31 41.74,71.89 59.87,108.97 42.03,86.11 36.77,205.44 31.46,296.14zm-372.19 127.76c-13.98,11.38 -25.89,21.63 -37.2,31.92 -20.73,18.98 -41.15,38.85 -61.73,58.76 -78.44,76.31 -159.66,155.26 -266.76,187.22 -31.37,9.35 -63.36,15.52 -95.49,18.41 56.52,-51.47 96.49,-132.11 126.85,-193.32l8.1 -16.23c47.84,-95.49 67.37,-181.43 61.06,-269.08 2.6,0 5.31,-0.31 7.91,-0.93 9.8,-2.34 42.77,-38.02 56.78,-47.41 9.28,-6.31 18.96,-12.77 27.23,-20.75 16.21,-15.69 30.1,-35.24 40.31,-56.61 5.59,-11.93 25.89,-45.47 27.49,-51.11 2.96,-10.85 5.57,-21.83 7.67,-32.83 19.08,31.78 37.87,64.53 54.08,98.6 39.8,83.44 54.48,182.15 43.68,293.37zm-541.63 296.26c-117.91,-10.07 -221.48,-64.53 -292.08,-153.73 -3.27,-4.16 -6.41,-8.27 -9.44,-12.48 65.2,-53.62 116.38,-140.22 162.09,-226.21 2.87,-5.38 6.24,-11.52 10.04,-18.36 16.78,-30.53 41.34,-74.95 54.32,-115.88 11.64,6.31 24.03,12.15 37.37,15.92 33.93,9.66 75.57,-0.41 119.59,-11.07 49.35,-11.95 100.29,-24.31 132.33,-3.82 0.26,0.36 0.43,0.81 0.67,1.24 4.49,7.56 9.28,13.77 15.37,19.58 15.18,179.02 -85.2,399.09 -230.25,504.81zm-331.22 -214.57c-8.08,-15.76 -73.71,-186.19 -90.66,-236.66 -8.87,-26.28 -18.31,-38.04 -11.65,-65.27 4.57,-19.08 13.58,-37.85 21.59,-55.63 5.83,-12.96 22.78,-21.02 36.27,-20.8 38.63,0.57 191.21,39.54 200.56,38.92 12.24,-0.86 23.96,-1.65 35.17,-0.84 -19.8,42.1 -40.81,84.11 -62.33,126.97 -18.79,37.44 -42.77,74.26 -66.03,109.83 -21.83,33.4 -44.37,67.87 -62.93,103.47zm-26.9 71.63c-3.3,-0.09 -6.57,0.29 -9.61,1.36l-15.11 5.24c-6.65,2.32 -10.37,9.06 -8.94,15.97 4.23,19.18 10.28,38.69 17.12,57.67 -9.42,-3.89 -20.06,-3.35 -29.43,2.15 -15.18,8.85 -20.59,27.16 -13.08,44.47l40.41 93.57 -0.07 0c-12.72,0 -25.22,5.38 -33.66,12.43 -15.42,12.79 -28.26,27.66 -38.13,44.18 -8.75,1.26 -16.95,5.74 -23.19,12.65 -8.25,9.16 -11.81,21.25 -9.85,33.97l6.57 43.68c-10.37,-6.46 -21.94,-8.92 -33.06,-7.2 -13.48,-29.19 -47.65,-40.65 -75.24,-34.55 -29.1,6.41 -45.88,29.52 -42.61,58.89 0.19,1.07 0.26,2.22 0.43,3.35l-1.51 0.24 3.3 11.55c2.01,14.28 4.37,27.21 7.08,39.11 -19.15,5.76 -34.43,23.62 -35.93,44.25l-0.1 1.41c-35.67,0.19 -72.44,19.96 -81.05,61.2 -0.24,1.17 -0.43,2.34 -0.67,3.49 -37.44,3.42 -71.87,29.91 -84.85,65.41 -35.24,7.94 -63.17,32.52 -73.47,64.6 -0.31,0.07 -0.6,0.22 -0.84,0.29 -25.2,-8.13 -53.65,-6.96 -77.44,3.25 -28.4,-6.26 -60.63,-0.17 -86.35,16.11 -33.04,-13.63 -73.2,-10.35 -104.17,9.01 -29.07,18.24 -45.61,47.24 -46.98,82.05 -21.16,0.24 -41.91,6.46 -59.89,17.81 -16.5,0.12 -33.4,3.47 -49.08,9.73 -25.03,-0.22 -48.91,6.09 -68.14,18.24 -7.5,-1.53 -15.11,-2.17 -22.78,-2.17 -23.26,0 -46.98,6.57 -65.87,18.93 -13.41,8.78 -23.35,20.01 -30.43,32.78 -7,-12.77 -17.05,-24 -30.46,-32.78 -18.89,-12.38 -42.51,-18.93 -65.87,-18.93 -7.58,0 -15.28,0.69 -22.69,2.17 -19.29,-12.19 -43.11,-18.46 -68.23,-18.24 -15.59,-6.29 -32.46,-9.59 -49.08,-9.73 -17.86,-11.4 -38.7,-17.55 -59.79,-17.81 -1.34,-34.81 -17.98,-63.81 -47.07,-82.05 -30.94,-19.39 -71.1,-22.64 -104.17,-9.01 -25.63,-16.3 -57.86,-22.33 -86.35,-16.11 -23.76,-10.23 -52.12,-11.35 -77.34,-3.25 -0.33,-0.12 -0.6,-0.21 -0.83,-0.29 -10.38,-32.08 -38.3,-56.61 -73.57,-64.6 -12.89,-35.52 -47.38,-61.94 -84.85,-65.41 -0.14,-1.17 -0.41,-2.3 -0.67,-3.49 -8.49,-41.24 -45.38,-60.99 -81.05,-61.2l-0.07 -1.44c-1.53,-20.63 -16.81,-38.42 -35.86,-44.23 2.63,-11.93 4.97,-24.79 7.07,-39.09l3.23 -11.57 -1.5 -0.28c0.14,-1.08 0.31,-2.18 0.41,-3.3 3.28,-29.39 -13.41,-52.48 -42.6,-58.89 -27.5,-6.12 -61.73,5.38 -75.14,34.55 -11.12,-1.77 -22.69,0.79 -33.07,7.2l6.6 -43.68c1.84,-12.77 -1.63,-24.79 -9.97,-33.97 -6.15,-6.93 -14.42,-11.38 -23.19,-12.65 -9.78,-16.55 -22.62,-31.35 -38.13,-44.18 -8.41,-7.08 -20.92,-12.41 -33.57,-12.41l-0.17 -0.02 40.4 -93.62c7.53,-17.26 2.11,-35.55 -13.07,-44.42 -9.25,-5.52 -19.89,-6.02 -29.43,-2.15 6.84,-19.03 12.91,-38.46 17.12,-57.67 1.53,-6.91 -2.27,-13.63 -8.94,-15.92l-15.09 -5.31c-3.04,-1.05 -6.24,-1.41 -9.63,-1.34 -0.14,-2.99 -0.74,-5.83 -1.77,-8.58 33.83,-49.73 58.02,-102.73 71.96,-157.81 2.1,-8.32 3.94,-16.97 5.71,-26.66 25.82,6.15 55.59,-0.17 78.04,-16.97 8.18,53.91 53.39,80.97 94.13,79.54 30.63,-1.03 62.23,-17.67 75.64,-52.31 10.88,18.17 28.86,31.25 52.12,37.22 36.72,9.42 78.18,-1.19 102.9,-25.29 25.41,14.61 59.55,18.17 91.59,9.15 29.69,-8.41 52.81,-26.39 64.62,-49.82 10.88,-2.27 21.32,-6.02 30.93,-10.97 28.09,22.5 68,28.21 104.26,14.85 27.33,46.21 83.65,60.68 125.66,50.28 41.26,-10.23 67.3,-41.26 70.67,-82.69 36.2,31.39 86.79,48.13 133.93,42.74 17.07,-2.01 32.56,-6.76 46.24,-14.01 13.75,7.24 29.26,12.02 46.29,14.01 47.17,5.38 97.76,-11.33 133.93,-42.74 3.39,41.41 29.36,72.48 70.6,82.69 42.1,10.38 98.43,-4.04 125.76,-50.28 36.2,13.34 76.07,7.7 104.17,-14.85 9.61,4.95 20.15,8.7 31.03,10.97 11.74,23.38 34.93,41.41 64.6,49.82 32.08,8.99 66.13,5.48 91.52,-9.15 24.81,24.1 66.3,34.74 102.9,25.29 23.28,-6 41.24,-19.03 52.21,-37.22 13.41,34.59 44.95,51.31 75.65,52.31 40.76,1.41 85.85,-25.63 94.12,-79.54 22.38,16.81 52.22,23.12 77.94,16.97 1.77,9.66 3.7,18.36 5.81,26.66 13.94,55.06 38.04,108.13 71.87,157.81 -0.93,2.7 -1.6,5.62 -1.77,8.58zm-2320.14 -71.63c-18.53,-35.62 -40.98,-70.03 -62.92,-103.47 -23.17,-35.57 -47.22,-72.37 -65.94,-109.83 -21.59,-42.89 -42.61,-84.85 -62.43,-126.97 11.24,-0.83 62.66,-7.2 69.57,-10.09 64.29,-26.47 146.1,-31.94 188.18,34.35 37.87,59.53 24.79,140.31 2.7,202.9 -6.24,17.74 -56.09,87.67 -69.17,113.11zm-39.04 60.82c-70.67,89.18 -174.26,143.71 -292.08,153.75 -145.07,-105.74 -245.44,-325.74 -230.33,-504.81 6.07,-5.81 10.95,-11.98 15.35,-19.58 0.24,-0.46 0.5,-0.84 0.67,-1.24 32.15,-20.51 83.08,-8.13 132.42,3.82 44.02,10.62 85.59,20.75 119.49,11.07 13.34,-3.8 25.72,-9.59 37.37,-15.92 13.01,40.91 37.54,85.4 54.32,115.88 3.83,6.81 7.17,13.01 10.04,18.36 45.73,85.95 96.9,172.61 162.09,226.21 -3.04,4.19 -6.14,8.32 -9.35,12.46zm-468.02 135.39c-107.08,-31.96 -188.32,-110.91 -266.86,-187.22 -20.49,-19.96 -40.91,-39.78 -61.73,-58.76 -11.31,-10.28 -23.19,-20.52 -37.2,-31.92 -10.78,-111.27 3.97,-209.89 43.68,-293.37 16.3,-34.07 35.09,-66.8 54.08,-98.6 2.1,11 4.71,22 7.74,32.83 1.56,5.59 21.85,39.21 27.5,51.11 10.13,21.33 24.12,40.93 40.33,56.61 8.27,7.98 74.21,65.82 83.92,68.16 2.61,0.6 5.31,0.93 7.91,0.93 -6.29,87.62 13.34,173.59 61.08,269.1l8.11 16.21c30.36,61.2 70.41,141.89 126.83,193.32 -32.04,-2.89 -64.02,-9.02 -95.39,-18.41zm-696.31 -407.48c-13.74,0 -27.66,0.65 -41.57,1.84 -5.4,-90.73 -10.64,-210.03 31.37,-296.17 18.15,-37.08 39.38,-73.66 59.96,-108.97 14.44,-24.81 29.26,-50.37 43.11,-76.15 16.21,-13.41 32.13,-26.82 47.98,-40.17l44.37 -37.34c116.07,-97.93 216.58,-182.78 357.25,-91.59 -71.74,90.97 -111.07,179.02 -119.85,268.51 -78.25,133.17 -152.89,293.82 -125.49,483.84 -95.8,-69.6 -193.65,-103.78 -297.13,-103.81zm-77.84 6.21c-25.39,3.94 -49.78,9.47 -74.4,16.71 -92.26,27.19 -180.31,77.39 -265.49,125.94 -77.84,44.33 -158.22,90.18 -241.23,117.89 9.2,-115.19 50.44,-228.96 132.16,-366.36 13.6,-22.78 133.43,-191.62 192.39,-265.78 4.33,8.39 10.04,16.52 17.12,24.27 49.87,54.34 127.02,31.77 180.67,10.11 28.43,-11.48 57.26,-26.18 87.52,-44.54 -18.62,35.43 -30.7,66.87 -37.34,96.8 -20.82,93.81 -4.73,202.62 8.61,284.95zm-777.21 285.89c-89.06,-8.49 -162.36,-48.48 -206.37,-112.68 -42.51,-62.14 -53.15,-141.92 -29.79,-224.66 21.02,-74.83 63.02,-150.81 128.39,-232.26 78.7,-43.97 160.23,-86.33 242.47,-126.02 53.39,-25.77 109.74,-46.45 164.2,-66.51 19.44,-7.12 38.8,-14.3 58.12,-21.66 -5.04,11.76 -7.74,23.76 -5.4,35.67 6.09,30.15 40,50.73 50.18,56.3 9.2,5 19.15,8.87 29.79,11.64 -45.64,47.58 -86.71,115.07 -109.81,153.08 -4.21,6.89 -7.84,12.84 -10.81,17.62 -88.72,141.01 -183.01,307.45 -182.84,502.37 -44.02,8.78 -86.02,11.09 -128.12,7.1zm27.33 -717.33c143.2,-143.35 315.01,-273.24 539.12,-407.46 -5.05,22.43 -5.67,41.03 -6.17,57.74 -1.17,36.39 -2.03,62.69 -46.31,109.07 -45.52,47.63 -110.05,69.79 -172.47,91.26l-16.78 5.76c-128,44.49 -232.86,110.24 -336.26,183.23 13.94,-14.44 27.06,-27.74 38.87,-39.59zm604.39 -312.26c59.65,13.82 129.63,3.11 195.76,-30.12 0.43,1.81 0.83,3.7 1.1,5.57 1.87,9.95 1.53,20.66 -1,31.78l-5.91 6.31c-45.19,48.2 -87.98,93.81 -147.77,113.61 -15.59,-22.81 -43.18,-33.88 -68.83,-39.16 14.11,-22.69 21.02,-54.2 26.66,-87.98zm55.85 -165.32c86.21,-48.44 171.7,-93.41 246.61,-132.11 -2.03,7.53 -3.87,15.06 -5.74,22.52 -8.85,35.96 -18.05,73.13 -38.87,103.14 -13.06,18.7 -176.1,118.92 -250.34,124.85 6.5,-37.85 49.68,-113.47 48.34,-118.39zm473.92 -173.35c12.22,-4.9 24.43,-9.82 36.67,-14.32 78.94,-29.05 165.9,-56.66 268.87,-85.44 -9.52,14.7 -20.15,28.54 -31.1,40.83 -58.53,44.42 -235.92,156.02 -256.24,166.97 -88.96,47.79 -180.98,97.26 -263.48,155.95 -7.15,5.09 -14.32,10.64 -21.76,16.86 -0.24,-4.93 -0.84,-9.64 -1.67,-14.3 75.57,-61.9 110.14,-151.38 139.83,-231.76 43.51,-0.5 86.86,-17.88 128.89,-34.79zm-108.47 -19.84l25.72 -13.17c138.07,-70.55 280.75,-143.42 417.91,-221.36 67.73,-38.44 135.94,-85.11 208.24,-134.48 106.53,-72.9 216.07,-147.68 329.85,-199.7 -67.06,54.75 -129.72,119.82 -186.81,178.97 -38.61,40.04 -75.17,77.91 -105.7,104.4 -33.11,28.74 -68.3,58.36 -107.44,90.4 -106.17,26.68 -201.49,51.88 -293.59,90.28 -24.19,10.02 -52.55,24.77 -82.65,40.38 -65.3,33.88 -145.33,75.41 -212.97,83.72 2.46,-6.53 4.9,-12.96 7.44,-19.44zm-461.11 575.43c-20.23,23.86 -44.87,50.76 -74.31,68.66 -23.09,14.08 -58.62,27.64 -96.39,12.27 -32.97,-13.41 -33.23,-31.92 -19.08,-69.88 20.85,-8.58 37.2,-15.69 52.38,-22.81 41.26,-19.41 73.04,-38.92 99.46,-61.15l2.87 -0.05c17.45,-0.33 49.83,-1.13 60.13,12.89 4.66,6.36 4.64,16.4 0.07,29.86 -1.91,5.74 -10.45,14.63 -16.69,21.14 -3.11,3.25 -6.07,6.38 -8.44,9.08zm2.3 87.48c24.29,-19.82 85.26,-74.26 91.23,-126.5 83.08,-13.75 128.05,-60.96 184.64,-120.21l11.31 -11.95 9.35 -6.22c42.27,7.74 107.7,-8.7 127.43,-17.93 25.08,-11.76 44.54,-29.48 63.43,-46.62 39.57,-35.89 68.16,-61.85 126.85,-17.05 -18.63,3.56 -36.27,9.28 -52.72,16.98 -55.9,26.15 -104.57,69.21 -151.65,110.91 -17.35,15.4 -34.5,30.6 -51.69,44.64l-2.94 2.39c-50.37,41.05 -102.33,83.44 -157.22,119.39 -38.73,25.37 -161.28,92.57 -192.22,72.89 -1.93,-1.22 -7.5,-4.78 -5.81,-20.72zm1786 -1268.02c-4.81,1.07 -9.54,2.49 -13.94,4.23 -200.54,42.82 -375.74,210.8 -516.41,345.75l-11.21 10.71c-165.97,159.06 -345.56,350.46 -373.89,608.64 -0.24,2.08 -0.07,4.16 0.43,6.12 -7.77,8.1 -15.35,16.28 -22.86,24.55 -33.49,-40.4 -83.58,-68.85 -139.76,-79.04 -17.88,-10.33 -32.97,-25.89 -47.57,-40.98 -25.37,-26.25 -51.52,-53.24 -92.69,-53.86 162.11,-105.65 326.67,-215.05 482.02,-331.96 108.97,-81.96 210.84,-172.97 311.37,-278.29 124.92,-130.72 242.4,-213.64 424.5,-215.89zm54.58 -557.02c45.38,-14.42 85.59,-47.67 101.7,-90.01 18.81,-2.63 37.01,-12.26 49.92,-31.41 23.05,2.96 45.88,-3.18 62.33,-16.88 23.02,5.71 48.07,2.8 68.13,-8.08 19.32,-10.5 32.66,-27.35 38.4,-48.72l3.13 -11.4c24.46,-1.6 45.85,-11.41 60.54,-27.59 32.46,7.91 68.16,-1.44 91.69,-23.98 24.98,14.42 54.99,17.96 80.62,9.04 22.97,-8.03 40.31,-25.29 49.85,-49.13 30.56,5.55 58.36,-5.95 77.01,-31.87 12.65,1.03 25.29,0.07 37.2,-3.11 11.38,10.45 25.63,17.43 40.98,21.3 0.02,-0.02 27.66,20.75 35.69,4.61 8.08,16.14 35.74,-4.61 35.74,-4.61 15.28,-3.92 29.52,-10.83 41,-21.3 11.91,3.16 24.53,4.16 37.11,3.11 18.72,25.89 46.55,37.46 77.07,31.87 9.47,23.81 26.92,41.1 49.85,49.13 25.58,8.89 55.68,5.38 80.54,-9.04 23.62,22.54 59.22,31.89 91.69,23.98 14.78,16.16 36.2,25.99 60.56,27.59l3.13 11.38c5.81,21.4 19.05,38.25 38.37,48.75 20.08,10.85 45.11,13.8 68.23,8.08 16.35,13.67 39.21,19.89 62.33,16.88 21.93,32.75 59.79,38.3 88.79,27.13 10.74,14.06 21.78,26.78 33.59,38.59 5.65,5.62 12.48,9.97 20.32,12.93l0.93 1.8c3.3,6.07 9.85,8.99 16.26,7.39 1.03,2.85 2.03,5.86 3.04,8.85l3.97 11.24c4.07,11.57 11.38,20.68 20.59,27.23 6.33,11.95 12.81,23.72 19.32,35.6 3.04,7 6.74,13.7 10.95,20.13 32.42,58.17 65.79,115.93 93.79,176.37 16.55,35.69 31.96,75.38 50.71,112.84 -60.39,-18.69 -127.62,-20.8 -178.47,-3.97 -3.11,0.93 -5.91,2.32 -8.78,3.54 -43.68,-19.27 -97.33,-15.49 -134.43,18.36 -46.98,-9.35 -99.69,4.44 -130.49,44.01 -3.2,-0.21 -6.5,-0.24 -9.78,-0.12 -31.04,-68.28 -122.22,-84.73 -175.67,-47.81 -16.21,-3.9 -33,-4.21 -48.68,-0.79 -15.78,-11.09 -34.5,-17.28 -53.81,-18.86 -52.69,-43.32 -153.49,-10.11 -164.3,68.43 -0.57,0.17 -1.1,0.36 -1.6,0.6 -12.79,-6.41 -26.73,-8.73 -40.91,-7.7 -2.08,-8.01 -4.37,-15.9 -6.41,-23.88 -15.95,-59.98 -77.94,-75.57 -124.06,-55.75 -50.01,-17.19 -112.77,1.94 -130.15,53.57 -37.68,-8.89 -78.78,3.04 -99,36.94 -29.93,-34.45 -81.24,-38.7 -115.98,-12.43 -36.84,-44.26 -112.94,-40.07 -142.7,12.22 -21.73,-11.88 -49.08,-10.54 -67.56,5.11 0.19,-7.94 0.26,-15.8 0.5,-23.72 1.63,-57.62 -92.76,-72.96 -102.71,-13.91 -0.09,0.33 -0.17,0.74 -0.17,1.05 -17.81,-6.65 -39.24,-4.64 -54.08,7.46 -12.31,-9.8 -30.26,-13.63 -45.28,-9.73 -25.06,-20.8 -61.23,-21.16 -96.16,-6.96 -15.32,-12.09 -38.2,-14.78 -55.42,-4.9 -1.48,-1.07 -3.04,-2.08 -4.64,-3.15 -0.65,-0.48 -1.51,-0.62 -2.27,-1.03 55.35,-131.04 114.88,-255.55 187.94,-375.23zm2483.17 1855.45c-56.88,-72.92 -128.39,-139.29 -202.35,-187.77 35.86,-70.74 39.88,-158.1 37.18,-232.33l8.87 7.7c135.39,118.22 263.22,229.92 328.69,386.85 0.17,4.35 1.17,8.37 3.04,12.15 1.5,3.3 3.2,6.55 4.88,9.8l2.39 4.52c15.83,44.25 26.2,91.06 30.77,139.31 -6.65,37.04 -25.22,68.28 -53.74,90.35 -10.69,8.3 -22.93,14.42 -34.74,20.3 -9.35,4.66 -18.89,9.44 -28,15.32 -15.09,-95.25 -35.33,-186.96 -96.97,-266.19zm-384.87 -435.24c-43.25,-53.98 -79.04,-104.19 -109.23,-153.48 -21.16,-50.42 -40.41,-105.17 -60.8,-163.2 -22.35,-63.45 -45.14,-128.29 -71.6,-190.71 2.1,2.99 4.28,6 6.57,9.01 20.15,27.71 40.4,55.35 60.89,82.87 71,95.3 154.92,205.03 252.41,301.45 26.42,26.16 55.59,53.34 94.13,87.55 -0.05,69.26 -4.3,155.66 -31.7,233.91 -36.67,-77.82 -89.49,-143.54 -140.67,-207.4zm-205.46 559.73c1.7,-5.69 4.9,-10.93 9.61,-15.13 7.27,-9.69 133.69,-115.48 153.17,-199.56 0.33,-1.41 2.11,-1.77 3.11,-2.68 4.57,-9.11 9.04,-18.36 13.24,-27.95 22.28,-50.59 44.37,-111.17 40.74,-167.85 30.29,44.69 92.52,172.42 97.06,173.59 39.16,123.77 33.33,226.19 -17.28,304.51 -93.86,26.2 -228.22,-12.43 -256.65,-9.4 -0.17,-0.02 -0.33,0.05 -0.6,0.05 -0.74,0.07 -1.6,0.12 -2.44,0.22 -13.82,1.5 -25.39,-5.69 -32.8,-16.33 -0.57,-0.76 -1.03,-1.46 -1.43,-2.2 -0.5,-0.84 -1.03,-1.53 -1.43,-2.32 -6.22,-10.57 -8.51,-23.6 -4.3,-34.95zm-135.54 -407.77c10.62,-22.28 22.26,-44.75 34,-67.35 21.66,-42 44.19,-85.33 60.89,-128.57 20.85,-53.79 31.2,-111.7 31.37,-175.6 7.27,15.8 9.87,35.81 22.86,48.46 52.62,51.09 200.3,313.91 94.29,503.61 -17.62,52.07 -44.95,99.62 -93.12,131.47 -21.42,14.15 -56.59,0.79 -61.56,-25.08 -3.18,-16.28 -7.77,-32.08 -12.65,-47.77 -17.45,-30.46 -101.3,-139.86 -120.61,-161.78l-5.98 -6.79c19.82,-16.74 34.91,-38.04 50.52,-70.6zm56.43 -862.87c110.57,63.72 213.87,144.31 329.42,256.31l15.04 14.58c151.65,146.89 308.07,298.54 359.52,506.17 -46.89,-45 -96.23,-87.65 -144.31,-129.06 -47.22,-40.86 -91.85,-79.42 -130.97,-117.39 -116.81,-113.51 -216.77,-245.43 -313.43,-373.03 -22.09,-29.21 -44.18,-58.38 -66.54,-87.38 -9.61,-12.62 -20.99,-29.31 -32.97,-47.02 -4.97,-7.44 -10.3,-15.16 -15.78,-23.19zm-157.03 875.5c-80.98,-96.92 -152.67,-205.92 -113.46,-363.52 14.85,-59.89 39.64,-117.96 63.59,-174.05 37.37,-87.57 72.8,-170.82 74.64,-260.98 30.13,43.61 61.83,93.96 87.65,150.45 12.07,26.37 23.53,52.96 34.91,79.61 29.55,155.59 12.24,274.15 -57.76,396.08 -19.82,34.67 -37.8,70.5 -55.18,105.09 -11.02,22.14 -22.43,44.9 -34.38,67.3zm-1723.26 106.56c42.1,-45.4 85.52,-92.26 121.02,-144.45 65.96,-96.97 90.32,-194.8 74.57,-298.99 -10.78,-70.93 -41,-140.38 -70.19,-207.56 -28.33,-65.27 -55.73,-128.6 -66.8,-192.58 0.69,1.44 1.36,2.92 2.2,4.4 2.96,9.18 6.74,17.52 11.55,24.57 19.15,65.37 99.69,82.87 150.57,45.67 16.71,-2.51 32.87,-9.23 46.62,-19.32 6.67,3.8 13.58,7.17 20.85,9.66 38.87,45.81 107.27,39.93 149.61,-0.26 44.88,45.83 126.52,46.62 162.19,0.05 39.73,30.65 95.89,36.2 131.99,2.68 34.83,40.93 99.19,49.25 142.78,26.28 31.46,7.81 67.33,-6.19 79.54,-42.91 5.91,4.95 12.74,8.72 19.48,10.33 22.78,5.59 47.65,10.26 70.43,2.44 19.49,104.45 186.05,88.91 206.37,-6.29 15.37,4.43 32.13,3.32 46.21,-5.35 2.65,-1.67 5.07,-3.56 7.6,-5.33 7.1,5.91 15.18,11.5 24.46,17 26.32,15.61 51.88,7.84 68.4,-10.5 47.57,14.73 103.83,3.42 136.89,-38.25 3.54,2.78 7.34,5.17 11.28,7.17 10.9,8.99 24.46,14.58 38.9,13.96 25.32,-1.2 43.18,-14.08 54.82,-34.19 10.88,-4.04 20.75,-13.01 29,-32.32 1.19,-2.85 2.27,-5.76 3.2,-8.68 -4.35,77.37 -37.37,153.22 -71.51,231.79 -29.19,67.13 -59.39,136.65 -70.09,207.56 -15.85,104.19 8.51,202.02 74.47,298.99 35.52,52.17 78.94,99.07 121.04,144.47 9.61,10.33 19.13,20.66 28.67,31.06 -11.62,-6.12 -24.96,-9.92 -39.23,-11.17 -27.14,-2.32 -53.29,5.02 -73.02,20.23 -19.48,-8.04 -41.43,-9.8 -62.16,-5.19 -20.68,-28.11 -55.42,-44.4 -91.85,-42.89 -35.33,1.39 -65.03,18.86 -82.41,48.1 -1.17,0.02 -2.44,0.09 -3.63,0.17 -4.61,-22.4 -17.86,-41.62 -38.04,-54.94 -26.46,-17.5 -62.73,-23.07 -94.7,-15.06 -12.48,-19.82 -32.46,-34.14 -57.28,-40.81 -29.67,-8.03 -62.06,-3.87 -88.29,10.9 -35.83,-28.85 -87.12,-38.37 -127.78,-23.81 -20.63,-22.59 -52.96,-32.75 -88.22,-27.3 -16.52,2.58 -32.04,8.32 -45.78,16.5 -13.75,-8.18 -29.29,-13.89 -45.81,-16.5 -35.14,-5.5 -67.47,4.71 -88.15,27.3 -40.65,-14.58 -91.93,-5 -127.76,23.81 -26.3,-14.8 -58.62,-18.91 -88.39,-10.9 -24.79,6.67 -44.8,20.99 -57.19,40.81 -31.94,-8.01 -68.23,-2.44 -94.72,15.06 -20.13,13.27 -33.4,32.54 -38.11,54.94 -1.1,-0.09 -2.37,-0.12 -3.54,-0.17 -17.45,-29.26 -47.07,-46.69 -82.41,-48.1 -36.51,-1.56 -71.2,14.8 -91.93,42.89 -20.68,-4.64 -42.61,-2.82 -62.09,5.19 -19.82,-15.23 -45.88,-22.5 -73.11,-20.23 -14.15,1.2 -27.49,5.07 -39.13,11.17 9.44,-10.4 19.06,-20.73 28.59,-31.08zm-85.35 -278.95c-69.91,-121.98 -87.31,-240.46 -57.78,-396.08 11.41,-26.68 22.95,-53.22 35,-79.61 25.82,-56.52 57.43,-106.82 87.62,-150.45 1.8,90.13 37.3,173.43 74.64,260.98 23.98,56.09 48.67,114.16 63.52,174.05 39.23,157.57 -32.39,266.62 -113.44,363.54 -11.88,-22.45 -23.28,-45.16 -34.4,-67.33 -17.29,-34.59 -35.26,-70.38 -55.16,-105.09zm-258.85 333.08c-41.17,-74.61 -86.04,-200.18 -46.64,-266.45 52.88,-75.02 107.37,-152.58 145.31,-229.92 8.04,-16.33 15.69,-32.61 22.86,-48.46 0.19,63.88 10.54,121.81 31.39,175.6 16.78,43.22 39.21,86.59 60.89,128.57 11.81,22.57 23.36,45.09 34.07,67.37 15.61,32.54 30.7,53.87 50.52,70.58l-5.98 6.79c-14.18,16 -28.59,32.54 -42.87,49.18 -0.98,3.66 -2.27,7.41 -4.37,11.29 -24.63,45.23 -38.97,95.37 -66.3,139.19 -10.88,17.43 -38.97,28.95 -57.43,15.09 -35.91,-27.06 -114.88,-106.8 -121.45,-118.82zm-204.7 -5.11c4.66,-1.2 66.87,-128.89 97.07,-173.59 -3.61,56.64 18.55,117.31 40.74,167.85 6.93,15.56 83.41,120.02 112.51,159.27 16.28,15.4 33.49,30.1 51.88,43.78 30.22,22.31 25.06,62.76 -10.04,76.7 -44.25,17.57 -266.26,31.2 -274.87,30.51 -50.59,-78.37 -56.35,-180.72 -17.28,-304.51zm-60.89 -346.66c38.56,-34.26 67.73,-61.35 94.2,-87.55 97.43,-96.42 181.44,-206.15 252.44,-301.45 20.42,-27.54 40.64,-55.13 60.89,-82.87 2.2,-3.04 4.37,-6 6.57,-9.01 -26.47,62.4 -49.25,127.26 -71.61,190.71 -20.39,58 -39.71,112.8 -60.8,163.2 -30.2,49.27 -65.96,99.5 -109.23,153.51 -51.28,63.79 -104.07,129.58 -140.77,207.38 -27.4,-78.25 -31.63,-164.65 -31.7,-233.91zm-247.01 92.67c51.45,-207.66 207.95,-359.26 359.52,-506.17l15.11 -14.61c115.55,-112.01 218.85,-192.53 329.33,-256.24 -5.45,7.99 -10.71,15.73 -15.76,23.15 -11.98,17.67 -23.29,34.43 -32.99,47.02 -22.26,29 -44.44,58.19 -66.54,87.38 -96.63,127.6 -196.59,259.54 -313.41,373.03 -39.04,37.96 -83.68,76.56 -130.99,117.39 -47.98,41.41 -97.43,84.09 -144.28,129.06zm190.85 -43.32l8.85 -7.75c-2.61,74.26 1.43,161.69 37.18,232.38 -73.95,48.44 -145.48,114.85 -202.33,187.8 -61.63,79.16 -81.89,170.91 -97,266.16 -9.01,-5.93 -18.55,-10.66 -27.9,-15.32 -11.81,-5.93 -24.05,-11.98 -34.83,-20.3 -28.5,-22.11 -46.98,-53.29 -53.65,-90.35 4.57,-48.27 14.85,-95.06 30.8,-139.28l2.3 -4.54c1.67,-3.28 3.35,-6.48 4.95,-9.8 1.86,-3.8 2.77,-7.77 3.04,-12.15 65.46,-156.95 193.22,-268.63 328.61,-386.85zm-83.85 421.13c39.64,-44.35 85.76,-82.34 131.57,-118.53 -15.35,64.55 -39.81,197.48 -7.08,280.74 3.11,14.99 6.24,27.66 9.85,39.74 1.96,6.46 -53.22,30.39 -99,29 -52.45,-1.65 -106.61,-3.39 -147.44,28.62 -0.24,-0.24 -0.5,-0.41 -0.76,-0.62 1.03,-5.21 48.24,-186.6 112.87,-258.94zm3339.97 258.94c-0.24,0.19 -0.57,0.41 -0.83,0.62 -40.74,-32.04 -94.96,-30.27 -147.34,-28.62 -45.81,1.39 -100.96,-22.5 -99.03,-29 3.66,-12.07 6.77,-24.72 9.78,-39.74 32.75,-83.31 8.27,-216.17 -6.98,-280.74 45.81,36.17 91.83,74.21 131.49,118.56 64.67,72.28 93.93,159.92 115.45,244.34 -2.61,4.23 -3.63,9.39 -2.54,14.58zm-450.18 -1350.23c100.6,105.31 202.4,196.35 311.35,278.31 155.47,116.86 319.91,226.33 482.03,331.96 -41.15,0.57 -67.23,27.64 -92.69,53.86 -14.48,15.09 -29.62,30.65 -47.57,40.98 -56.16,10.16 -106.27,38.63 -139.67,79.04 -7.5,-8.3 -15.08,-16.45 -22.85,-24.55 0.43,-2.01 0.6,-4.04 0.43,-6.12 -28.43,-258.2 -207.9,-449.56 -373.98,-608.64l-11.12 -10.74c-133,-127.52 -296.72,-284.33 -483.6,-337.43 -0.7,-3.37 -1.03,-6.53 -1.8,-9.99 156.98,14.39 265.26,93.76 379.49,213.33zm250.81 20.2c72.27,49.39 140.5,96.09 208.23,134.51 137.21,77.89 279.91,150.81 417.91,221.36l25.8 13.17c2.46,6.46 4.97,12.93 7.34,19.44 -67.63,-8.32 -147.68,-49.82 -212.94,-83.72 -30.03,-15.63 -58.46,-30.34 -82.58,-40.38 -92.09,-38.42 -187.48,-63.59 -293.59,-90.28 -39.13,-32.06 -74.4,-61.66 -107.54,-90.4 -30.53,-26.49 -66.96,-64.33 -105.7,-104.4 -56.99,-59.15 -119.75,-124.2 -186.81,-178.97 113.87,52 223.34,126.83 329.88,199.67zm672.38 423.65c29.67,80.38 64.24,169.93 139.74,231.78 -0.84,4.61 -1.44,9.37 -1.7,14.3 -7.41,-6.26 -14.51,-11.74 -21.68,-16.86 -82.48,-58.72 -174.5,-108.13 -263.46,-155.95 -20.42,-10.97 -197.72,-122.55 -256.31,-166.97 -10.98,-12.34 -21.61,-26.13 -31.13,-40.83 103,28.74 189.92,56.42 268.87,85.44 12.24,4.44 24.46,9.42 36.7,14.32 42.01,16.88 85.35,34.31 128.98,34.76zm345.04 138.59c-1.37,4.93 41.72,80.55 48.22,118.39 -74.14,-5.95 -131.16,-18.91 -206.2,-75.19 -16.54,-14.7 -31.06,-30.93 -44.04,-49.65 -20.92,-30.03 -30.03,-67.18 -38.97,-103.14 -1.74,-7.46 -3.7,-14.99 -5.64,-22.52 74.83,38.68 160.33,83.67 246.63,132.11zm82.48 253.28c-25.75,5.28 -53.31,16.38 -68.83,39.19 -59.79,-19.82 -102.66,-65.39 -147.77,-113.56l-5.98 -6.36c-2.53,-11.14 -2.87,-21.83 -1.03,-31.78 0.33,-1.86 0.77,-3.73 1.2,-5.57 66.03,33.2 136.04,43.96 195.73,30.15 5.59,33.76 12.5,65.27 26.68,87.93zm4.71 119.85c-6.33,-6.5 -14.78,-15.35 -16.78,-21.11 -4.57,-13.48 -4.47,-23.48 0.17,-29.86 10.21,-14.04 42.58,-13.22 60.06,-12.89l2.87 0.05c26.46,22.21 58.19,41.74 99.43,61.15 15.28,7.1 31.54,14.25 52.38,22.81 14.15,37.96 13.99,56.47 -19.08,69.88 -37.75,15.32 -73.2,1.81 -96.39,-12.27 -29.33,-17.95 -53.98,-44.78 -74.31,-68.66 -2.27,-2.7 -5.24,-5.83 -8.34,-9.11zm-417.91 -186.22c19.72,9.2 85.19,25.7 127.43,17.96l9.37 6.19 11.38 11.91c56.52,59.27 101.54,106.53 184.54,120.26 6.07,52.24 66.96,106.7 91.33,126.5 1.72,15.94 -3.87,19.53 -5.81,20.72 -30.96,19.65 -153.51,-47.53 -192.29,-72.89 -54.89,-35.98 -106.87,-78.34 -157.15,-119.35l-2.94 -2.46c-17.19,-14.04 -34.4,-29.22 -51.71,-44.61 -47.12,-41.72 -95.72,-84.75 -151.65,-110.91 -16.43,-7.72 -34.14,-13.39 -52.79,-16.98 58.72,-44.83 87.38,-18.81 126.85,17.05 18.91,17.12 38.44,34.91 63.43,46.62zm990.93 290.67c11.81,11.83 24.96,25.18 38.87,39.59 -103.4,-73.04 -208.33,-138.71 -336.36,-183.23l-16.69 -5.79c-62.4,-21.44 -127.02,-43.61 -172.56,-91.23 -44.2,-46.41 -45.14,-72.65 -46.21,-109.07 -0.6,-16.76 -1.2,-35.29 -6.17,-57.74 224.09,134.19 395.89,264.11 539.12,407.46zm-10.54 -117.46c-232.6,-214.19 -508.49,-373.84 -722.9,-489.08 -93.76,-50.42 -190.19,-99.69 -283.37,-147.37 -109.57,-56.06 -221.24,-113.3 -331.39,-173.64 68.83,-122.48 133.5,-274.27 136.8,-415.39 124.82,2.39 249.41,-94.6 349.27,-161.11 93.62,-62.37 202.4,-129.34 265.83,-223.89 4.74,-7.08 8.01,-14.85 10.47,-22.86 35.93,-7.84 71.6,-20.44 111.41,-34.19 86.35,-29.89 176.61,-25.25 256.48,-70.67 23.05,-13.1 27.23,-46.45 8.35,-64.96 -78.18,-76.62 -175,-52.62 -271.57,-21.9 -56.09,17.76 -107.63,37.99 -152.51,67.7 -80.02,-44.16 -216.91,45.47 -289.11,69.24 -143.52,47.12 -343.53,148.9 -399.95,299.42 -12.98,-1.1 -26.06,-0.53 -38.04,2.56 -165.8,43.06 -269.54,209.98 -320.74,376.09 -9.76,-6.57 -19.56,-13.1 -29.26,-19.58 -110.48,-74.23 -223.15,-149.57 -344.94,-190.14 4.38,-6.55 7.08,-14.25 6.98,-21.9 -1.57,-113.13 -65.94,-230.09 -115.71,-328.69 -1.57,-3.25 -3.2,-6.38 -4.8,-9.54 32.49,-8.32 61.39,-28.83 79.37,-64.91 27.69,-55.61 50.25,-102.99 54.56,-166.35 4.14,-16.07 4.47,-32.09 0.93,-48.06 -0.67,-16.21 -32.73,-44.97 -4.47,-76.96 15.54,-17.62 104.5,-146.86 119.02,-188.2 27.59,-78.58 37.87,-162.19 35.17,-245.63 12.31,-6.07 22.93,-16.95 28.93,-33.42 24.39,-67.16 74.71,-127.59 104.83,-192.7 26.73,-57.88 44.11,-115.07 46.88,-179.09 1.2,-29.98 -34.74,-39.04 -54.56,-22.57 -57.26,47.58 -95.32,107.3 -127.12,174.07 -28.24,59.34 -63.83,126.26 -79.52,190.09 -1.7,7 -2.03,13.44 -1.6,19.56 -147.51,80.4 -214.91,291.41 -217.18,442.8 -0.41,24.39 -54.48,32.25 -73.8,51.62 -19.56,19.51 -34.5,39.61 -46.98,60.6 -12.22,-23.79 -29.02,-46.07 -50.19,-64.86 -12.81,-11.36 -28.16,-17.57 -43.87,-18 -8.68,-12.07 -17.62,-24 -26.8,-35.79 -3.04,-35.07 -8.37,-67.54 -16.21,-99.07l-3.01 -12.53 -3.71 1.58c-10.13,-17.69 -27.59,-30.15 -48.67,-34.26 -18.98,-3.66 -37.97,0.29 -51.78,10.42 -9.28,-8.34 -18.74,-16.35 -28.35,-24.15 -4.28,-6.62 -8.78,-13.22 -13.48,-19.8 -7.24,-10.23 -16.78,-18.5 -28.52,-24.79l-2.18 -9.3c-6.41,-26.47 -22.52,-46.48 -45.21,-56.3 -23.52,-10.21 -51.78,-8.82 -76.67,3.42 -18.72,-9.35 -38.2,-18 -57.86,-26.37 137.83,-36.7 283.81,-48.89 422.38,-81.45 16.14,-3.83 26.15,-13.96 30.7,-25.87 46.17,-10.3 90.25,-34.54 131.49,-55.8 50.11,-25.8 117.81,-52.83 142.61,-105.5 6.26,-13.24 -2.34,-28 -14.82,-32.7 -3.78,-4.4 -10.47,-6.46 -16.97,-2.27 -1.91,1.2 -3.7,2.48 -5.55,3.68 -47.24,12.55 -85.35,53.6 -126.61,79.23 -38.61,23.93 -83.65,41.43 -123.13,65.48 -7.31,-5.4 -17.04,-8.49 -29.19,-7.24 -146.74,14.75 -321.51,55.59 -450.54,133.96 -2.61,-2.73 -5.07,-5.65 -7.67,-8.32 -23.29,-23.41 -53.48,-32.04 -83.92,-24.17 -32.8,-30.31 -84.18,-43.42 -120.95,-15.8 -36.77,-7.77 -74.81,-14.68 -115.47,-21.09l0.02 -9.01c-11.81,0.98 -23.72,2.34 -35.77,3.82 -11.98,-1.5 -23.88,-2.82 -35.69,-3.8l0.02 8.99c-40.67,6.38 -78.8,13.34 -115.57,21.09 -29.17,-21.95 -67.37,-17.93 -98.43,-0.31 -128.43,-75.91 -300,-115.5 -444.3,-130.08 -12.22,-1.24 -21.85,1.84 -29.26,7.24 -39.38,-24.05 -84.52,-41.5 -123.06,-65.48 -41.24,-25.65 -79.44,-66.65 -126.59,-79.23 -1.86,-1.22 -3.73,-2.46 -5.57,-3.66 -6.5,-4.26 -13.15,-2.15 -16.95,2.25 -12.55,4.71 -21.09,19.48 -14.85,32.7 24.72,52.65 92.52,79.73 142.54,105.5 41.34,21.3 85.43,45.52 131.57,55.8 4.56,11.88 14.58,22.09 30.7,25.91 123.34,28.91 252.44,41.84 376.59,70.15 -9.78,4.5 -18.98,10.85 -27.25,19.17 -8.75,8.82 -17.29,18.1 -25.3,27.59 -27.3,10.83 -54.22,22.83 -79.87,35.6 -24.87,-12.24 -53.13,-13.6 -76.58,-3.42 -22.76,9.83 -38.8,29.83 -45.28,56.33l-2.2 9.23c-11.62,6.31 -21.18,14.65 -28.52,24.84 -4.69,6.57 -9.18,13.17 -13.48,19.8 -9.52,7.8 -18.98,15.83 -28.26,24.15 -13.91,-10.13 -32.8,-14.06 -51.78,-10.42 -21.06,4.09 -38.63,16.59 -48.75,34.26l-3.61 -1.58 -3.13 12.53c-4.54,18.22 -8.01,37.03 -10.88,56.26 -10.28,-12.07 -21.85,-23.67 -35.17,-34.93 -21.02,-17.67 -75.5,-20.87 -77.94,-45.16 -15.18,-150.65 -100.2,-355.2 -253.94,-422.83 -0.07,-6.17 -1,-12.5 -3.3,-19.34 -21.06,-62.3 -62.16,-125.9 -95.3,-182.65 -37.37,-63.86 -80.31,-120.11 -141.44,-162.69 -21.06,-14.8 -56.19,-2.65 -52.38,27.13 8.1,63.52 30.29,119.06 61.82,174.43 35.53,62.35 90.83,118.32 120.78,183.13 7.34,15.9 18.89,25.85 31.63,30.84 4.47,83.37 21.83,165.82 55.92,241.75 17.96,39.98 117.56,161.24 134.5,177.44 30.82,29.48 1.37,60.92 2.04,77.1 -2.08,16.19 -0.5,32.13 4.97,47.81 9.61,62.73 36.19,108.06 68.57,161.11 7.27,11.91 15.68,21.73 24.96,29.88 -34.64,69.59 -64.6,141.68 -91.09,213.38 -6.65,14.58 -13.15,29.31 -19.89,43.89l-7.01 1.53 -2.1 6.41c-2.34,7.36 -5.07,14.7 -7.77,22l-3.44 9.7c-6.24,13.94 -12.15,28.02 -17.88,42.03 -19.15,40.59 -38.13,81.17 -56.85,121.81 -2.01,1.58 -3.87,3.18 -6.24,5.02 -14.25,11.59 -17.55,26.22 -14.18,39.73 -2.61,5.69 -5.21,11.38 -7.84,17.07 -116.62,41.43 -225.19,113.73 -331.63,185.26 -12.31,8.25 -24.96,16.69 -37.44,25.08 -50.19,-169.1 -154.69,-341.4 -323.61,-385.3 -11.98,-3.08 -24.98,-3.56 -38.04,-2.51 -56.42,-150.59 -256.41,-252.32 -399.95,-299.46 -72.18,-23.81 -209,-113.39 -289.11,-69.24 -44.78,-29.77 -96.33,-49.87 -152.41,-67.71 -96.66,-30.74 -193.48,-54.68 -271.66,21.93 -18.89,18.43 -14.58,51.83 8.44,64.93 79.78,45.4 170.03,40.81 256.39,70.67 39.83,13.72 75.57,26.35 111.41,34.19 2.46,8.01 5.74,15.8 10.47,22.85 63.43,94.56 172.23,161.54 265.83,223.9 99.89,66.48 224.44,163.53 349.27,161.11 3.37,143.99 70.67,299.13 141,422.85 -107.94,58.93 -217.17,114.97 -324.52,169.89 -93.22,47.65 -189.61,96.97 -283.4,147.37 -214.38,115.19 -490.28,274.91 -722.87,489.08 -124.75,114.9 -416.83,384 -360.41,658.96 40.5,197.31 254.98,275.3 436.22,248.5 118.77,-17.55 234.72,-82.86 346.9,-145.98 139.33,-78.41 272.93,-153.24 412.77,-148.18 0.93,8.41 2.44,16.83 4.87,24.98 -18.12,4.44 -35.57,14.54 -50.42,32.01 -79.01,92.76 -145.17,191.91 -212.54,293.2 -63.83,95.82 -157.15,189.04 -190.95,299.56 -1.34,4.35 -2.2,8.73 -2.8,13.06 -41.22,31.27 -79.69,69.76 -109.04,92.78 -98.17,77.08 -209.17,149.95 -291.48,244.34 -39.54,45.33 10.78,118.34 66.04,85.56 90.78,-53.91 168.26,-131.37 247.13,-201.11 48.24,-42.7 96.06,-84.44 141.67,-128.55 25.15,12.26 54.92,13.51 80.98,-4.18 97.09,-65.91 156.19,-178.83 229.82,-269.18 76.94,-94.2 153.25,-185.93 218.61,-288.61 14.7,-23.09 18.22,-46.98 14.68,-69.48 16.02,-3.2 32.47,-9.59 49.18,-20.87 10.11,-6.86 20.32,-13.39 30.53,-20.06 56.44,39.16 106.51,86.17 155.43,132.16 112.44,105.91 228.75,215.5 416.4,215.5l0.86 -0.05c120.02,-0.19 239.94,-49.7 333.56,-136.9 -1,10.28 -1.7,20.61 -2.03,30.82 -10.11,26.8 -18.22,54.48 -26.16,81.21 -2.58,8.97 -5.21,17.96 -7.91,26.68 -4.2,14.04 -0.09,27.69 11.21,36.46 6.07,4.76 13.32,7.41 20.75,7.89 -3.2,13.8 -4.47,27.88 -4.04,43.75l-3.37 8.34c-2.87,7.05 -2.8,14.42 0.14,21.18 2.89,6.72 8.61,12.31 15.87,15.8 7.44,8.99 17.12,15.04 27.16,16.59 7.94,1.26 15.76,-0.24 22.93,-4.23 1.6,3.59 3.3,7.29 4.97,10.9l-8.32 44.2c-2.8,14.8 2.78,28.91 14.39,36.65 4.93,3.2 10.47,5.14 16.11,5.64 -1,2.75 -1.94,5.48 -2.87,8.15l-1.24 3.56c-4.64,13.56 -3.13,26.89 4.21,37.49 -4.13,16.69 0.74,33.35 13.06,44.9 9.87,9.11 22.95,13.8 36.27,13.39 0.12,5.74 0.26,11.6 0.52,17.65 1.1,20.63 12.48,38.85 30.36,48.6 13.68,7.34 29.1,8.94 43.35,4.61 4.4,24.13 9.87,46.41 16.69,67.83 5.59,17.31 16.04,30.8 30.36,39.5 -1.17,11.21 -2.01,22.28 -2.44,32.37 -4.2,22.86 4.97,45.54 24.72,60.58 19.65,14.99 45.95,19.39 66.96,11.57 19.65,8.2 42.25,10.4 62.67,6.05 14.08,24.8 40.57,43.85 70.6,50.54 4.13,6.6 8.41,13.24 13.41,20.18 0.5,0.55 1,1.07 1.67,1.77 1.63,11.83 3.37,23.72 5.4,35.7 7.17,41.98 38.47,69.14 82.05,71.87 14.44,18.93 37.13,31.65 63.52,35.62 13.74,20.51 35.24,35.09 61.15,41.15 26.66,6.22 54.46,2.46 77.41,-10.35 13.68,8.7 29.26,14.73 45.88,17.6 10.98,31.99 34.33,55.8 66.46,67.25 34.76,12.43 74.64,8.15 106.37,-10.83 15.25,12.1 34.24,19.31 55.49,20.97 21.35,41 64.86,69.14 110.24,70.69 1.26,0.05 2.51,0.05 3.87,0.05 21.52,0 41.34,-6.43 58.29,-18.07 17.02,11.62 36.77,18.07 58.36,18.07 1.27,0 2.54,0 3.8,-0.05 45.37,-1.56 88.89,-29.69 110.31,-70.69 21.26,-1.7 40.14,-8.82 55.49,-20.97 31.63,18.98 71.6,23.26 106.27,10.83 32.13,-11.48 55.59,-35.22 66.56,-67.25 16.54,-2.92 32.13,-8.89 45.78,-17.6 23.02,12.79 50.78,16.62 77.44,10.35 25.99,-6.07 47.48,-20.59 61.13,-41.15 26.42,-3.97 49.18,-16.67 63.59,-35.62 43.63,-2.72 74.8,-29.86 82.07,-71.87 2.03,-12 3.7,-23.84 5.4,-35.7 0.67,-0.74 1.17,-1.19 1.6,-1.77 4.97,-6.93 9.28,-13.56 13.41,-20.18 30.03,-6.69 56.5,-25.75 70.58,-50.54 20.51,4.33 43.01,2.18 62.66,-6.05 21.11,7.77 47.31,3.47 67.06,-11.57 19.75,-15.04 28.93,-37.68 24.63,-60.58 -0.41,-10.11 -1.27,-21.16 -2.44,-32.37 14.44,-8.72 24.79,-22.19 30.36,-39.5 6.91,-21.42 12.38,-43.7 16.78,-67.83 14.18,4.28 29.67,2.78 43.27,-4.61 17.98,-9.8 29.26,-27.92 30.36,-48.6 0.33,-6.07 0.5,-11.88 0.57,-17.65 13.27,0.39 26.39,-4.26 36.2,-13.39 12.38,-11.57 17.19,-28.21 13.15,-44.9 7.37,-10.59 8.85,-23.93 4.14,-37.46l-1.17 -3.59c-1.03,-2.7 -1.96,-5.4 -2.87,-8.15 5.64,-0.52 11.11,-2.39 16.02,-5.64 11.74,-7.8 17.19,-21.8 14.42,-36.6l-8.25 -44.25c1.67,-3.66 3.28,-7.29 4.88,-10.9 7.17,3.97 15.01,5.52 22.93,4.23 10.14,-1.58 19.85,-7.58 27.16,-16.59 7.27,-3.49 13,-9.08 15.94,-15.8 2.96,-6.76 2.96,-14.08 0.1,-21.18l-3.37 -8.34c0.5,-15.9 -0.76,-29.96 -3.97,-43.75 7.34,-0.53 14.58,-3.13 20.75,-7.89 11.21,-8.82 15.42,-22.43 11.12,-36.46 -2.61,-8.75 -5.31,-17.67 -7.91,-26.68 -7.84,-26.75 -15.94,-54.37 -26.15,-81.21 -0.31,-10.26 -1,-20.51 -2.04,-30.82 93.62,87.17 213.57,136.73 333.66,136.94l0.79 -0.05c187.72,0 303.94,-109.5 416.45,-215.46 46.5,-43.85 94.22,-88.46 147.34,-126.47 9.2,6 18.48,11.91 27.59,18.07 16.62,11.26 33.14,17.72 49.08,20.9 -3.54,22.45 0.1,46.35 14.75,69.47 65.31,102.59 141.7,194.42 218.54,288.59 73.64,90.3 132.83,203.29 229.83,269.18 26.08,17.67 55.92,16.47 80.97,4.18 45.64,44.09 93.43,85.88 141.77,128.53 78.78,69.76 156.29,147.22 247.04,201.14 55.25,32.78 105.67,-40.24 66.03,-85.61 -82.22,-94.34 -193.31,-167.19 -291.48,-244.29 -29.33,-23.02 -67.73,-61.49 -109.04,-92.79 -0.5,-4.35 -1.43,-8.7 -2.8,-13.05 -33.74,-110.57 -127.09,-203.74 -190.86,-299.56 -67.46,-101.35 -133.59,-200.47 -212.54,-293.25 -14.92,-17.45 -32.3,-27.47 -50.52,-31.96 2.78,-9.25 4.47,-18.77 5.31,-28.33 143.71,-9.49 280.61,67.47 423.38,147.82 112.17,63.12 228.25,128.43 347,145.98 181.15,26.76 395.62,-51.14 436.19,-248.5 56.45,-274.96 -235.73,-544.06 -360.45,-658.96z"/>
 </g>
</svg>
